<?xml version="1.0" standalone="no"?>
<!DOCTYPE svg PUBLIC "-//W3C//DTD SVG 20010904//EN"
 "http://www.w3.org/TR/2001/REC-SVG-20010904/DTD/svg10.dtd">
<svg version="1.0" xmlns="http://www.w3.org/2000/svg"
 width="512.000000pt" height="512.000000pt" viewBox="0 0 512.000000 512.000000"
 preserveAspectRatio="xMidYMid meet">
<metadata>
Created by potrace 1.11, written by Peter Selinger 2001-2013
</metadata>
<g transform="translate(0.000000,512.000000) scale(0.100000,-0.100000)"
fill="#000000" stroke="none">
<path d="M230 4221 c-83 -26 -159 -90 -201 -171 l-24 -45 0 -1450 0 -1450 24
-45 c32 -61 86 -116 146 -148 l50 -27 2335 0 2335 0 50 27 c60 32 114 87 146
148 l24 45 3 1430 c3 1615 8 1492 -76 1586 -25 28 -68 62 -96 77 l-51 27
-2320 2 c-1276 1 -2331 -2 -2345 -6z m2030 -886 l0 -305 305 0 305 0 0 -310 0
-310 305 0 305 0 2 308 3 307 303 3 302 2 0 305 0 305 305 0 305 0 0 -475 0
-475 -305 0 -305 0 0 -310 0 -310 -305 0 -305 0 0 -305 0 -305 -305 0 -305 0
0 305 0 305 -305 0 -305 0 0 310 0 310 -305 0 -305 0 0 -310 0 -310 -305 0
-305 0 0 -305 0 -305 -305 0 -305 0 0 475 0 475 305 0 305 0 2 308 3 307 303
3 302 2 0 305 0 305 305 0 305 0 0 -305z"/>
</g>
</svg>
