<?xml version="1.0" standalone="no"?>
<!DOCTYPE svg PUBLIC "-//W3C//DTD SVG 20010904//EN"
 "http://www.w3.org/TR/2001/REC-SVG-20010904/DTD/svg10.dtd">
<svg version="1.0" xmlns="http://www.w3.org/2000/svg"
 width="500.000000pt" height="500.000000pt" viewBox="0 0 500.000000 500.000000"
 preserveAspectRatio="xMidYMid meet">
<metadata>
Created by potrace 1.11, written by Peter Selinger 2001-2013
</metadata>
<g transform="translate(0.000000,500.000000) scale(0.100000,-0.100000)"
fill="#000000" stroke="none">
<path d="M203 4112 c-100 -35 -171 -115 -193 -216 -8 -36 -10 -454 -8 -1431
l3 -1380 28 -57 c32 -64 80 -111 146 -142 l46 -21 2275 0 2275 0 46 21 c66 31
114 78 146 142 l28 57 0 1410 0 1410 -28 57 c-32 64 -80 111 -146 142 l-46 21
-2260 2 c-2149 2 -2263 2 -2312 -15z m1806 -697 c67 -37 125 -102 146 -165 9
-26 20 -95 24 -152 17 -213 78 -271 304 -287 159 -12 247 -64 304 -179 24 -48
28 -70 28 -137 0 -67 -4 -89 -28 -137 -30 -62 -83 -115 -149 -150 -36 -19 -59
-23 -133 -23 -104 0 -162 22 -226 86 -62 62 -79 106 -94 250 -16 158 -37 208
-103 250 -61 38 -137 52 -257 47 -125 -6 -194 -32 -236 -91 -37 -51 -47 -91
-57 -219 -10 -121 -31 -175 -93 -236 -65 -66 -119 -87 -224 -87 -78 0 -97 4
-140 27 -60 32 -114 87 -146 148 -20 38 -24 60 -24 135 0 102 18 150 84 218
61 65 120 88 242 97 127 10 176 23 223 61 56 47 76 102 86 233 10 131 27 181
86 245 66 74 136 102 249 98 66 -3 89 -8 134 -32z m2534 19 c61 -21 141 -93
175 -158 22 -43 26 -64 26 -136 1 -98 -18 -151 -79 -218 -60 -67 -126 -93
-259 -102 -76 -6 -128 -15 -157 -27 -89 -39 -139 -133 -139 -258 0 -167 -83
-296 -218 -339 -26 -8 -88 -17 -138 -20 -112 -7 -168 -26 -217 -74 -47 -46
-64 -100 -76 -244 -10 -120 -37 -185 -98 -239 -68 -59 -109 -74 -213 -74 -110
0 -162 19 -228 86 -65 64 -86 119 -87 219 0 98 20 152 80 218 58 65 127 92
260 102 74 6 129 15 157 28 88 38 138 132 138 257 0 213 131 354 329 355 79 1
174 22 213 49 70 48 92 106 107 273 11 125 38 188 108 245 84 69 212 92 316
57z m-3827 -1304 c71 -35 132 -101 155 -167 8 -21 14 -72 13 -113 0 -99 -28
-163 -100 -229 -70 -65 -131 -85 -233 -79 -127 7 -215 68 -269 186 -21 48 -24
64 -20 140 5 98 18 131 81 199 97 106 238 129 373 63z"/>
</g>
</svg>
