<?xml version="1.0" standalone="no"?>
<!DOCTYPE svg PUBLIC "-//W3C//DTD SVG 20010904//EN"
 "http://www.w3.org/TR/2001/REC-SVG-20010904/DTD/svg10.dtd">
<svg version="1.0" xmlns="http://www.w3.org/2000/svg"
 width="500.000000pt" height="500.000000pt" viewBox="0 0 500.000000 500.000000"
 preserveAspectRatio="xMidYMid meet">
<metadata>
Created by potrace 1.11, written by Peter Selinger 2001-2013
</metadata>
<g transform="translate(0.000000,500.000000) scale(0.100000,-0.100000)"
fill="#000000" stroke="none">
<path d="M205 4112 c-99 -34 -174 -117 -195 -215 -8 -37 -10 -449 -8 -1432 l3
-1380 21 -46 c28 -60 93 -125 153 -153 l46 -21 2275 0 2275 0 46 21 c60 28
125 93 153 153 l21 46 0 1410 0 1410 -21 46 c-28 60 -93 125 -153 153 l-46 21
-2260 2 c-2123 2 -2263 1 -2310 -15z m1808 -695 c103 -56 167 -160 167 -271 0
-83 19 -178 45 -222 39 -66 102 -94 240 -104 179 -14 266 -63 326 -186 80
-161 15 -346 -149 -426 -57 -28 -76 -33 -142 -32 -92 0 -148 23 -219 89 -67
62 -91 123 -102 251 -10 131 -25 179 -69 225 -48 51 -115 69 -250 69 -125 0
-195 -17 -244 -61 -48 -42 -67 -97 -76 -226 -9 -134 -34 -197 -106 -263 -69
-63 -123 -84 -219 -84 -158 1 -271 90 -311 246 -37 142 34 291 170 358 53 26
80 32 172 39 122 9 173 26 222 74 41 39 58 98 71 238 12 139 46 207 134 268
69 47 122 62 205 57 59 -4 84 -11 135 -39z m2548 16 c68 -30 128 -89 161 -158
23 -50 28 -73 28 -140 0 -96 -26 -161 -90 -225 -65 -65 -125 -88 -262 -99
-137 -10 -195 -33 -234 -90 -33 -48 -43 -89 -52 -213 -10 -121 -31 -173 -94
-238 -62 -65 -127 -90 -261 -100 -219 -16 -269 -68 -286 -291 -13 -164 -65
-254 -186 -317 -43 -23 -63 -27 -135 -27 -101 0 -154 20 -224 85 -132 122
-136 330 -7 459 65 65 107 81 253 96 234 25 277 69 296 306 10 122 31 175 94
239 62 65 127 90 260 100 62 5 126 13 142 19 95 37 134 108 145 269 10 128 32
186 94 250 71 73 147 104 247 98 37 -1 85 -12 111 -23z m-3881 -1278 c56 -20
115 -64 151 -113 118 -160 60 -391 -119 -479 -49 -24 -69 -28 -142 -28 -69 0
-94 5 -135 25 -63 31 -117 85 -152 152 -24 46 -28 65 -28 138 0 66 5 96 21
131 31 67 87 124 156 159 51 25 73 30 133 30 40 0 92 -7 115 -15z"/>
</g>
</svg>
